<svg xmlns="http://www.w3.org/2000/svg" viewBox="0 0 512 512" width="512" height="512" role="img" aria-label="chat icon">
  <path d="M 72 346 L 72 391 L 75 395 L 252 465 L 281 457 L 438 393 L 438 344 L 431 341 L 289 402 L 272 413 L 255 431 L 239 413 L 218 400 L 86 343 L 77 341 Z M 72 268 L 74 317 L 218 377 L 254 402 L 262 399 L 285 381 L 432 320 L 438 315 L 438 267 L 430 264 L 290 325 L 272 337 L 255 354 L 244 341 L 221 325 L 81 264 Z M 318 56 L 275 46 L 246 47 L 210 56 L 183 71 L 165 87 L 152 105 L 143 125 L 139 142 L 139 174 L 148 202 L 157 218 L 173 236 L 196 253 L 220 263 L 220 304 L 224 308 L 231 306 L 263 275 L 288 271 L 315 262 L 346 244 L 368 222 L 384 191 L 390 162 L 389 144 L 381 116 L 371 98 L 358 82 L 336 65 Z" fill="#C30D23" fill-rule="evenodd"/>
</svg>
