<svg xmlns="http://www.w3.org/2000/svg" viewBox="0 0 512 512" width="512" height="512" role="img" aria-label="cited icon">
  <path d="M 111 391 L 95 400 L 89 408 L 84 419 L 84 435 L 88 443 L 88 446 L 93 453 L 100 459 L 114 465 L 128 465 L 136 461 L 139 461 L 153 447 L 158 435 L 158 420 L 153 408 L 143 397 L 131 391 Z M 334 67 L 335 138 L 339 141 L 408 141 Z M 90 51 L 84 61 L 84 358 L 96 371 L 216 371 L 217 432 L 230 447 L 413 447 L 422 442 L 427 434 L 427 169 L 416 160 L 321 159 L 314 148 L 314 55 L 303 46 L 99 46 Z M 317 181 L 318 211 L 304 216 L 293 227 L 287 240 L 286 257 L 321 258 L 321 328 L 244 329 L 243 251 L 248 229 L 253 220 L 253 217 L 270 197 L 272 197 L 274 194 L 282 189 L 300 182 Z M 211 181 L 212 211 L 201 216 L 198 216 L 187 227 L 181 241 L 179 257 L 214 258 L 214 328 L 137 329 L 136 253 L 139 235 L 144 225 L 144 222 L 149 213 L 152 211 L 158 202 L 169 193 L 180 187 L 194 182 Z" fill="#C30D23" fill-rule="evenodd"/>
</svg>
