<svg xmlns="http://www.w3.org/2000/svg" viewBox="0 0 512 512" width="512" height="512" role="img" aria-label="plans icon">
  <path d="M 68 102 L 63 112 L 62 442 L 76 463 L 431 465 L 449 449 L 449 110 L 444 101 L 429 92 L 377 92 L 375 62 L 359 46 L 343 48 L 332 60 L 330 92 L 179 92 L 177 61 L 169 50 L 150 46 L 134 60 L 132 92 L 84 92 Z M 265 298 L 399 297 L 400 417 L 398 419 L 266 419 Z M 285 317 L 283 321 L 283 397 L 287 401 L 379 401 L 383 398 L 383 319 L 381 317 Z M 109 298 L 242 297 L 243 418 L 110 419 Z M 265 171 L 267 169 L 398 169 L 400 171 L 400 273 L 266 274 Z M 109 170 L 242 170 L 243 273 L 110 274 Z" fill="#C30D23" fill-rule="evenodd"/>
</svg>
